<svg xmlns="http://www.w3.org/2000/svg" viewBox="-30 0 512 512.00019" id="svg-f97f" class="u-svg-content">
<path d="m434.210938 352.351562-146.765626-84.734374c.941407-3.957032 1.457032-8.082032 1.457032-12.324219 0-12.882813-4.609375-24.707031-12.261719-33.917969 8.363281-4.941406 15.863281-11.433594 22.105469-19.289062 15.359375-19.320313 20.972656-44.191407 15.40625-68.234376l-24.738282-106.832031c-4.066406-17.5625-20.015624-28.828125-37.933593-26.78125-17.914063 2.046875-30.914063 16.621094-30.914063 34.648438v169.46875c-16.011718 4.777343-28.882812 16.910156-34.667968 32.464843-8.453126-4.761718-17.816407-8.007812-27.730469-9.488281-24.414063-3.640625-48.761719 3.933594-66.800781 20.777344l-80.148438 74.839844c-13.175781 12.304687-14.953125 31.753906-4.226562 46.242187 6.875 9.285156 17.195312 14.25 27.828124 14.25 5.964844 0 12.027344-1.5625 17.636719-4.800781l144.003907-83.140625v201.324219c0 8.378906 6.796874 15.175781 15.179687 15.175781h48.214844c8.382812 0 15.175781-6.796875 15.175781-15.175781v-126.898438c7.8125 6.207031 16.820312 10.984375 26.683594 13.992188l104.882812 31.992187c3.511719 1.070313 7.039063 1.585938 10.496094 1.585938 13.527344 0 25.941406-7.875 31.664062-21.046875 7.183594-16.539063 1.066407-35.082031-14.546874-44.097657zm-158.003907-56.171874 142.824219 82.460937c.953125.550781 3.492188 2.015625 1.886719 5.710937-1.609375 3.699219-4.410157 2.84375-5.464844 2.523438l-104.882813-31.992188c-14.707031-4.484374-26.371093-15.257812-32.011718-29.558593-3.71875-9.433594-4.472656-19.539063-2.351563-29.144531zm-244.816406 54.949218c-2.402344-3.242187-.257813-5.242187.546875-5.992187l80.148438-74.835938c9.382812-8.765625 21.511718-13.5 34.113281-13.5 2.484375 0 4.988281.183594 7.488281.558594 10.03125 1.496094 19.160156 5.894531 26.414062 12.535156l-142.824218 82.457031c-.953125.550782-3.488282 2.015626-5.886719-1.222656zm219.53125-316.242187c0-1.101563 0-4.03125 4.003906-4.488281.292969-.035157.570313-.046876.828125-.046876 3.273438 0 3.855469 2.523438 4.085938 3.515626l24.738281 106.832031c3.46875 14.976562-.027344 30.464843-9.59375 42.5-6.308594 7.9375-14.683594 13.640625-24.0625 16.605469zm7.625 220.40625c0 12.574219-10.230469 22.804687-22.804687 22.804687-12.570313 0-22.800782-10.230468-22.800782-22.804687s10.230469-22.800781 22.800782-22.800781c12.574218 0 22.804687 10.226562 22.804687 22.800781zm-31.730469 226.351562v-173.957031c2.90625.496094 5.886719.765625 8.925782.765625 3.042968 0 6.023437-.273437 8.925781-.765625.003906.097656.007812.191406.007812.289062v173.667969zm0 0"></path></svg>